<svg width="1142" height="430" xmlns="http://www.w3.org/2000/svg" overflow="hidden"><defs><clipPath id="a"><path d="M69 145h1142v430H69z" fill-rule="evenodd" clip-rule="evenodd"/></clipPath></defs><g clip-path="url(#a)" transform="translate(-69 -145)"><path stroke="#000" stroke-miterlimit="8" fill="#FFF" d="M70.5 274.5h343v172h-343z"/><text font-family="DengXian,DengXian_MSFontService,sans-serif" font-weight="400" font-size="24" transform="translate(204.674 368)">FC<tspan x="26.333" y="0">网络</tspan></text><path stroke="#000" stroke-miterlimit="8" fill="#FFF" d="M866.5 274.5h344v172h-344z"/><text font-family="DengXian,DengXian_MSFontService,sans-serif" font-weight="400" font-size="24" transform="translate(1000.85 368)">FC<tspan x="26.333" y="0">网络</tspan></text><path d="M500.5 360.5c0-118.189 62.68-214 140-214s140 95.811 140 214-62.68 214-140 214-140-95.811-140-214z" stroke="#000" stroke-miterlimit="8" fill="#FFF" fill-rule="evenodd"/><text font-family="DengXian,DengXian_MSFontService,sans-serif" font-weight="400" font-size="24" transform="translate(581.667 296)">TCP/IP<tspan x="68.667" y="0">网络</tspan></text><path d="M414.5 360.5l26-26v13h34v-13l26 26-26 26v-13h-34v13z" stroke="#000" stroke-miterlimit="8" fill="#FFF" fill-rule="evenodd"/><text font-family="DengXian,DengXian_MSFontService,sans-serif" font-weight="400" font-size="21" transform="translate(436.67 367)">FCIP</text><path d="M780.5 360.5l26-26v13h34v-13l26 26-26 26v-13h-34v13z" stroke="#000" stroke-miterlimit="8" fill="#FFF" fill-rule="evenodd"/><text font-family="DengXian,DengXian_MSFontService,sans-serif" font-weight="400" font-size="21" transform="translate(802.83 367)">FCIP</text><path d="M370.5 360.5l79-79V321h377v-39.5l79 79-79 79V400h-377v39.5z" stroke="#4472C4" stroke-miterlimit="8" stroke-dasharray="3 1" fill="none"/><text fill="#4472C4" font-family="DengXian,DengXian_MSFontService,sans-serif" font-weight="400" font-size="21" transform="translate(594.785 367)">虚拟通道</text></g></svg>