<svg width="773" height="505" xmlns="http://www.w3.org/2000/svg" overflow="hidden"><defs><clipPath id="a"><path d="M243 118h773v505H243z" fill-rule="evenodd" clip-rule="evenodd"/></clipPath></defs><g clip-path="url(#a)" transform="translate(-243 -118)"><path stroke="#000" stroke-miterlimit="8" fill="#FFF" d="M244.5 119.5h212v100h-212z"/><text font-family="DengXian,DengXian_MSFontService,sans-serif" font-weight="400" font-size="24" transform="translate(312.676 177)">FC<tspan x="26.333" y="0">设备</tspan></text><path d="M478.5 370.5c0-83.395 67.829-151 151.5-151s151.5 67.605 151.5 151-67.829 151-151.5 151-151.5-67.605-151.5-151z" stroke="#000" stroke-miterlimit="8" fill="#FFF" fill-rule="evenodd"/><text font-family="DengXian,DengXian_MSFontService,sans-serif" font-weight="400" font-size="24" transform="translate(571.007 378)">TCP/IP<tspan x="68.667" y="0">网络</tspan></text><path stroke="#000" stroke-miterlimit="8" fill="#FFF" d="M803.5 119.5h212v100h-212z"/><text font-family="DengXian,DengXian_MSFontService,sans-serif" font-weight="400" font-size="24" transform="translate(871.671 177)">FC<tspan x="26.333" y="0">设备</tspan></text><path stroke="#000" stroke-miterlimit="8" fill="#FFF" d="M803.5 521.5h212v100h-212z"/><text font-family="DengXian,DengXian_MSFontService,sans-serif" font-weight="400" font-size="24" transform="translate(871.671 579)">FC<tspan x="26.333" y="0">设备</tspan></text><path stroke="#000" stroke-miterlimit="8" fill="#FFF" d="M244.5 521.5h212v100h-212z"/><text font-family="DengXian,DengXian_MSFontService,sans-serif" font-weight="400" font-size="24" transform="translate(312.676 579)">FC<tspan x="26.333" y="0">设备</tspan></text><path d="M441.815 203.02l60.038-6.056-13.495 16.524 44.919 36.688 13.495-16.524 6.056 60.038-60.038 6.056 13.496-16.523-44.92-36.688-13.495 16.523z" stroke="#000" stroke-width="1.333" stroke-miterlimit="8" fill="#FFF" fill-rule="evenodd"/><text font-family="DengXian,DengXian_MSFontService,sans-serif" font-weight="400" font-size="19" transform="rotate(39.24 -83.182 799.908)">iFCP<tspan x="-20.05" y="22.832">协议转换</tspan></text><path d="M709.071 294.19l4.955-60.139 13.796 16.274 44.24-37.504-13.796-16.274 60.139 4.956-4.955 60.139-13.796-16.274-44.24 37.504 13.796 16.274z" stroke="#000" stroke-width="1.333" stroke-miterlimit="8" fill="#FFF" fill-rule="evenodd"/><text font-family="DengXian,DengXian_MSFontService,sans-serif" font-weight="400" font-size="19" transform="rotate(-40.289 721.049 -890.62)">iFCP<tspan x="-19.641" y="22.679">协议转换</tspan></text><path d="M708.47 447.636l60.038-6.055-13.495 16.523 44.919 36.688 13.495-16.523 6.056 60.038-60.038 6.055 13.495-16.523-44.919-36.688-13.495 16.523z" stroke="#000" stroke-width="1.333" stroke-miterlimit="8" fill="#FFF" fill-rule="evenodd"/><text font-family="DengXian,DengXian_MSFontService,sans-serif" font-weight="400" font-size="19" transform="rotate(39.24 -293.49 1296.417)">iFCP<tspan x="-20.05" y="22.832">协议转换</tspan></text><path d="M430.627 547.37l4.955-60.138 13.796 16.273 44.24-37.504-13.796-16.274 60.139 4.956-4.956 60.139-13.795-16.274-44.24 37.504 13.795 16.274z" stroke="#000" stroke-width="1.333" stroke-miterlimit="8" fill="#FFF" fill-rule="evenodd"/><text font-family="DengXian,DengXian_MSFontService,sans-serif" font-weight="400" font-size="19" transform="rotate(-40.289 926.671 -384.595)">iFCP<tspan x="-20.288" y="23.442">协议转换</tspan></text><path d="M560.168 294.021l142.91.457-.004 1-142.909-.457zm1.319 4.505L553.5 294.5l8.013-3.974zm140.269-7.552l7.987 4.026-8.013 3.974z" fill="#4472C4"/><path d="M545.68 450.767l159.438-151.315-.689-.725-159.438 151.314zm-2.13-4.182l-3.05 8.408 8.556-2.606zm163.01-143.677l3.05-8.408-8.557 2.606z" fill="#4472C4"/><path d="M704.051 444.113L557.888 299.544l.704-.711 146.162 144.569zm2.216-4.137l2.875 8.47-8.5-2.782zM556.375 302.97l-2.875-8.47 8.501 2.782z" fill="#4472C4"/><path d="M709.026 441.282l.548-140.114-1-.004-.548 140.114zm-4.495-1.352l3.969 8.016 4.031-7.984zm8.538-137.415l-3.968-8.015-4.032 7.984zM541.53 448.887l11.804-147.701-.996-.08-11.805 147.702zm-4.38-1.687l3.35 8.293 4.625-7.656zm19.567-144.406l-3.35-8.294-4.625 7.656zM702.327 448.279l-155.187 6.49.042.999 155.187-6.49zm-1.144 4.552l7.826-4.331-8.16-3.662zm-152.857-1.615l-7.826 4.33 8.16 3.663z" fill="#4472C4"/></g></svg>